<svg width="53.601" height="70.4" viewBox="0 0 53.601 70.4" xmlns="http://www.w3.org/2000/svg"><g id="svgGroup" stroke-linecap="round" fill-rule="evenodd" font-size="9pt" stroke="none" stroke-width="0.25mm" fill="#ffffff" style="stroke:none;stroke-width:0.25mm;fill:#ffffff"><path d="M 33.601 70.3 L 33.601 49.3 Q 33.601 47.2 33.301 46.25 A 2.833 2.833 0 0 0 33.054 45.679 Q 32.838 45.308 32.524 45.084 A 1.681 1.681 0 0 0 32.301 44.95 A 3.187 3.187 0 0 0 31.843 44.77 Q 31.136 44.545 29.901 44.4 L 17.601 42.9 A 34.717 34.717 0 0 1 12.311 41.931 Q 5.691 40.133 2.901 35.8 A 13.466 13.466 0 0 1 1.286 32.493 A 18.143 18.143 0 0 1 0.601 29.7 Q 0.001 26.1 0.001 20.9 Q 0.001 9.8 5.701 4.9 Q 10.279 0.919 20.009 0.207 A 52.528 52.528 0 0 1 20.101 0.2 L 20.101 20.3 A 28.267 28.267 0 0 0 20.115 21.219 Q 20.129 21.662 20.159 22.046 A 13.264 13.264 0 0 0 20.201 22.5 A 5.535 5.535 0 0 0 20.283 23.023 Q 20.339 23.29 20.418 23.509 A 2.251 2.251 0 0 0 20.601 23.9 A 1.654 1.654 0 0 0 21.412 24.673 A 2.218 2.218 0 0 0 21.601 24.75 Q 22.209 24.967 23.347 25.071 A 17.916 17.916 0 0 0 23.701 25.1 L 37.501 26.8 A 60.201 60.201 0 0 1 40.268 27.248 Q 42.729 27.709 44.501 28.3 A 11.747 11.747 0 0 1 48.36 30.423 A 11.217 11.217 0 0 1 49.101 31.1 Q 53.078 35.254 53.54 45.111 A 57.486 57.486 0 0 1 53.601 47.8 A 45.182 45.182 0 0 1 53.206 54.011 Q 52.113 61.855 48.001 65.6 A 14.78 14.78 0 0 1 43.034 68.591 A 17.601 17.601 0 0 1 41.951 68.95 A 30.416 30.416 0 0 1 38.605 69.725 Q 36.877 70.03 34.926 70.201 A 53.084 53.084 0 0 1 33.601 70.3 Z M 2.001 68.5 L 2.001 53.9 Q 7.901 54.4 15.501 54.9 Q 20.301 55.1 22.301 55.1 A 153.646 153.646 0 0 0 24.486 55.086 Q 27.436 55.043 28.858 54.877 A 9.496 9.496 0 0 0 29.401 54.8 L 29.401 70.4 L 28.301 70.4 A 195.83 195.83 0 0 1 16.919 70.083 A 157.347 157.347 0 0 1 9.701 69.5 Q 4.601 69 2.001 68.5 Z M 24.301 15.5 L 24.301 0 L 26.801 0 A 134.1 134.1 0 0 1 40.522 0.726 A 151.125 151.125 0 0 1 43.801 1.1 A 96.464 96.464 0 0 1 46.58 1.541 Q 48.241 1.828 50.101 2.2 L 50.101 16.6 Q 47.062 16.232 39.784 15.609 A 1064.387 1064.387 0 0 0 38.501 15.5 Q 33.901 15.3 31.101 15.3 Q 27.501 15.3 24.301 15.5 Z" vector-effect="non-scaling-stroke"/></g></svg>